<?xml version="1.0" encoding="UTF-8" ?>
<!DOCTYPE svg PUBLIC "-//W3C//DTD SVG 1.1//EN" "http://www.w3.org/Graphics/SVG/1.1/DTD/svg11.dtd">
<svg width="888pt" height="443pt" viewBox="0 0 888 443" version="1.1" xmlns="http://www.w3.org/2000/svg">
<g id="#000000fd">
<path fill="#000000" opacity="1.00" d=" M 346.50 121.04 C 347.37 112.99 354.82 106.22 362.99 106.47 C 367.54 106.19 371.72 108.36 375.12 111.20 C 373.69 112.66 372.26 114.11 370.83 115.57 C 367.05 112.58 361.54 111.48 357.36 114.35 C 351.39 117.88 350.94 127.30 356.50 131.43 C 360.62 135.02 366.77 134.11 370.81 130.89 C 372.25 132.34 373.68 133.79 375.12 135.25 C 370.09 139.67 362.64 141.54 356.41 138.58 C 349.67 135.78 345.44 128.26 346.50 121.04 Z" />
<path fill="#000000" opacity="1.00" d=" M 386.20 107.13 C 394.43 104.48 404.04 109.14 406.85 117.35 C 410.42 125.92 405.13 136.61 396.27 139.21 C 387.36 142.34 376.58 136.31 374.79 126.99 C 372.68 118.69 377.97 109.47 386.20 107.13 M 387.31 113.37 C 384.33 114.47 381.91 117.02 381.02 120.07 C 378.86 126.11 383.61 133.23 389.96 133.71 C 396.46 134.70 402.61 128.46 401.66 121.99 C 401.13 115.33 393.47 110.69 387.31 113.37 Z" />
<path fill="#000000" opacity="1.00" d=" M 410.24 106.51 C 412.32 106.52 414.40 106.52 416.48 106.52 C 416.45 115.59 416.48 124.66 416.46 133.73 C 423.98 133.74 431.49 133.73 439.00 133.73 C 439.00 135.82 439.00 137.91 439.00 140.00 C 429.42 140.00 419.84 140.01 410.26 139.99 C 410.25 128.83 410.28 117.67 410.24 106.51 Z" />
<path fill="#000000" opacity="1.00" d=" M 442.50 118.95 C 443.13 111.86 449.85 106.08 456.95 106.47 C 464.17 106.30 470.77 112.67 470.94 119.87 C 471.12 126.58 470.93 133.29 471.00 140.00 C 468.91 140.00 466.82 140.00 464.73 140.00 C 464.73 137.91 464.72 135.83 464.73 133.74 C 459.31 133.74 453.89 133.73 448.47 133.75 C 448.47 135.82 448.47 137.90 448.49 139.97 C 446.40 139.99 444.33 140.00 442.26 140.01 C 442.41 132.99 441.95 125.95 442.50 118.95 M 450.50 115.50 C 447.63 118.82 448.62 123.51 448.47 127.52 C 453.89 127.54 459.30 127.52 464.72 127.54 C 464.50 123.46 465.80 118.59 462.66 115.30 C 459.63 111.67 453.44 111.87 450.50 115.50 Z" />
<path fill="#000000" opacity="1.00" d=" M 473.23 106.53 C 479.80 106.59 486.38 106.43 492.95 106.56 C 497.77 106.70 501.90 111.12 502.01 115.90 C 502.28 118.59 500.80 120.97 499.57 123.23 C 500.77 125.30 502.12 127.45 502.02 129.95 C 502.21 135.27 497.42 140.17 492.07 139.97 C 485.80 140.10 479.53 139.95 473.26 140.00 C 473.25 128.84 473.29 117.68 473.23 106.53 M 479.48 112.48 C 479.47 114.98 479.46 117.48 479.45 119.98 C 483.95 119.91 488.45 120.23 492.94 119.86 C 496.58 119.42 496.64 113.63 493.19 112.80 C 488.67 112.06 484.04 112.62 479.48 112.48 M 479.47 126.27 C 479.46 128.76 479.46 131.24 479.46 133.73 C 484.16 133.57 488.91 134.12 493.57 133.46 C 496.82 132.35 496.35 126.86 492.90 126.45 C 488.44 126.00 483.94 126.37 479.47 126.27 Z" />
<path fill="#000000" opacity="1.00" d=" M 440.31 166.90 C 444.88 163.62 450.66 164.33 455.93 164.82 C 463.02 165.89 470.21 165.01 477.34 165.56 C 478.63 172.37 476.97 179.20 477.13 186.03 C 477.14 193.68 477.17 201.33 477.14 208.97 C 476.56 220.64 475.45 232.28 475.32 243.97 C 473.50 258.91 473.79 273.96 473.89 288.98 C 474.01 293.87 477.54 298.10 476.77 303.10 C 476.66 304.62 475.26 305.55 474.43 306.68 C 468.79 307.31 463.29 304.57 457.72 306.06 C 454.12 306.88 450.41 306.76 446.77 306.41 C 446.32 305.09 445.82 303.78 445.53 302.42 C 446.93 300.93 448.82 299.73 450.92 299.64 C 457.02 299.46 463.04 297.54 469.16 298.75 C 466.45 294.30 467.46 288.95 467.30 284.02 C 467.46 272.68 466.85 261.31 467.91 250.00 C 469.03 242.73 468.32 235.35 469.38 228.08 C 469.35 220.69 470.64 213.37 470.43 205.98 C 470.51 194.84 470.12 183.69 470.91 172.56 C 461.58 172.94 452.31 171.82 443.01 171.49 C 440.89 171.19 440.69 168.56 440.31 166.90 Z" />
<path fill="#000000" opacity="1.00" d=" M 604.18 166.85 C 608.84 163.57 614.69 164.35 620.03 164.86 C 627.06 165.90 634.19 164.97 641.25 165.60 C 642.46 173.74 640.43 181.84 640.83 189.99 C 641.04 204.32 640.77 218.64 639.43 232.91 C 639.38 242.28 638.35 251.60 637.66 260.93 C 637.61 269.94 637.69 278.95 637.62 287.97 C 637.19 293.64 642.18 298.56 640.38 304.30 C 638.24 307.91 633.41 306.63 630.01 306.12 C 623.81 304.33 617.61 307.94 611.37 306.40 C 609.70 305.48 609.62 303.51 609.31 301.86 C 611.14 301.03 612.88 299.73 614.96 299.62 C 620.98 299.42 626.92 297.55 632.96 298.74 C 631.84 296.30 630.80 293.74 630.79 291.01 C 630.70 274.99 630.38 258.93 632.45 243.01 C 632.27 234.97 633.54 227.02 633.54 218.99 C 635.22 203.56 633.49 188.01 634.82 172.56 C 625.05 173.00 615.37 171.66 605.62 171.49 C 605.12 169.94 604.63 168.40 604.18 166.85 Z" />
<path fill="#000000" opacity="1.00" d=" M 276.18 168.45 C 279.66 165.17 284.68 166.40 289.00 166.32 C 296.75 166.91 304.53 166.64 312.30 166.77 C 313.88 171.72 313.13 176.88 312.57 181.92 C 312.22 193.53 312.71 205.16 312.32 216.77 C 311.67 222.48 311.42 228.23 311.43 233.98 C 311.81 238.27 312.13 242.61 311.50 246.90 C 310.88 242.60 311.35 238.25 311.05 233.93 C 310.99 242.64 310.27 251.30 309.40 259.96 C 309.08 269.98 309.37 280.01 309.25 290.03 C 308.96 294.64 312.38 298.45 312.40 303.03 C 312.84 305.61 310.72 308.31 308.09 308.39 C 303.64 308.89 299.35 306.63 294.90 307.48 C 290.71 308.24 286.40 308.94 282.18 307.94 C 282.34 306.20 282.52 304.48 282.73 302.76 C 282.41 304.31 282.09 305.86 281.75 307.42 C 281.62 305.90 281.49 304.38 281.36 302.87 C 285.31 300.93 289.77 301.25 294.01 300.51 C 297.53 299.96 301.11 300.17 304.64 300.52 C 303.54 298.14 302.88 295.59 303.04 292.96 C 303.23 278.30 302.65 263.61 303.61 248.96 C 304.73 241.66 304.06 234.26 304.85 226.94 C 306.62 209.27 304.69 191.47 306.51 173.83 C 300.37 173.87 294.22 173.90 288.08 173.54 C 284.23 173.30 280.24 173.84 276.55 172.43 C 276.46 171.44 276.27 169.45 276.18 168.45 Z" />
<path fill="#000000" opacity="1.00" d=" M 328.11 168.55 C 334.56 167.93 341.02 167.28 347.52 167.68 C 347.52 169.88 347.47 172.08 347.32 174.27 C 342.61 174.98 337.82 174.52 333.11 175.23 C 332.45 182.34 336.06 188.90 335.64 195.98 C 335.67 203.31 335.54 210.65 335.67 217.98 C 337.02 230.26 336.20 242.65 336.45 254.98 C 336.73 261.72 334.42 268.25 334.81 275.00 C 334.31 282.40 334.66 290.00 332.28 297.13 C 333.50 298.25 334.71 299.37 335.91 300.50 C 339.15 299.26 342.36 297.93 345.67 296.87 C 352.15 295.51 358.81 295.30 365.41 295.64 C 365.68 298.13 365.73 300.74 363.72 302.57 C 354.27 302.57 344.08 302.80 336.10 308.52 C 335.31 308.52 333.72 308.52 332.93 308.52 C 330.63 305.74 327.77 303.44 325.72 300.47 C 323.78 296.18 327.68 292.26 327.39 287.99 C 327.19 282.63 328.63 277.39 328.27 272.04 C 327.92 266.30 329.96 260.76 329.68 255.02 C 329.45 243.01 330.21 230.95 328.88 218.98 C 328.34 209.72 329.35 200.39 328.34 191.15 C 326.27 184.42 327.09 177.17 324.07 170.69 C 325.40 169.96 326.63 168.95 328.11 168.55 Z" />
<path fill="#000000" opacity="1.00" d=" M 491.47 168.61 C 497.89 167.99 504.32 167.30 510.79 167.63 C 510.76 169.91 510.70 172.19 510.60 174.47 C 506.19 175.06 501.67 174.29 497.31 175.16 C 496.76 178.79 497.19 182.50 498.14 186.04 C 500.33 193.83 499.12 201.99 499.42 209.96 C 499.01 218.66 500.57 227.28 500.23 235.98 C 499.94 246.33 501.09 256.80 498.98 267.02 C 498.13 276.95 498.94 287.16 496.24 296.85 C 497.23 298.23 498.49 299.38 499.69 300.60 C 508.84 295.99 519.23 294.94 529.33 295.68 C 529.60 298.13 529.54 300.65 527.70 302.52 C 518.30 302.69 508.04 302.61 500.13 308.44 C 499.29 308.48 497.62 308.56 496.79 308.60 C 494.27 305.72 491.06 303.31 489.31 299.84 C 487.60 296.63 490.58 293.52 491.02 290.35 C 492.06 281.11 490.91 271.67 492.96 262.54 C 493.95 257.42 493.40 252.18 493.54 247.01 C 493.39 238.68 493.96 230.31 492.91 222.03 C 491.74 210.02 494.31 197.67 490.92 185.92 C 490.28 181.74 490.70 177.36 488.67 173.49 C 487.30 171.22 489.28 169.10 491.47 168.61 Z" />
<path fill="#000000" opacity="1.00" d=" M 160.07 171.70 C 161.66 171.02 163.13 169.75 164.94 169.76 C 171.02 169.55 177.11 169.07 183.19 169.59 C 183.28 170.98 183.38 172.37 183.48 173.77 C 182.51 174.62 181.68 175.68 180.54 176.32 C 176.57 176.81 172.55 176.44 168.56 176.71 C 167.85 184.00 171.33 190.79 171.15 198.04 C 171.27 207.34 170.78 216.66 171.61 225.94 C 172.02 233.60 171.75 241.28 171.83 248.95 C 171.74 254.90 172.26 260.96 170.88 266.81 C 169.79 271.66 170.60 276.66 169.96 281.55 C 169.24 286.56 169.83 291.71 168.38 296.62 C 167.40 298.93 169.64 300.44 170.93 301.98 C 174.87 300.93 178.59 299.26 182.46 298.01 C 188.46 297.04 194.59 297.25 200.65 297.37 C 200.60 299.36 200.56 301.35 200.49 303.34 C 194.63 305.55 188.18 303.59 182.21 305.29 C 177.96 306.74 173.76 308.40 169.88 310.68 C 166.37 308.43 163.36 305.38 161.06 301.92 C 159.13 298.24 162.54 294.75 162.57 291.06 C 162.55 285.35 163.82 279.73 163.53 274.02 C 163.22 267.94 165.56 262.10 165.30 256.03 C 165.18 247.67 165.46 239.31 165.16 230.96 C 163.77 219.36 164.76 207.65 164.33 196.01 C 163.88 191.63 162.07 187.49 161.88 183.07 C 161.87 179.18 160.23 175.57 160.07 171.70 Z" />
<path fill="#000000" opacity="1.00" d=" M 523.35 184.09 C 524.86 184.05 526.37 184.02 527.90 184.00 C 529.74 190.69 531.69 197.34 533.61 204.00 C 532.09 204.00 530.57 204.00 529.06 204.00 C 528.72 202.66 528.40 201.33 528.07 199.99 C 526.17 200.00 524.27 200.02 522.38 200.05 C 522.09 201.33 521.80 202.62 521.53 203.91 C 520.14 203.95 518.76 204.00 517.39 204.05 C 519.41 197.41 521.44 190.77 523.35 184.09 M 523.43 196.00 C 524.62 196.00 525.83 196.00 527.04 196.00 C 526.43 193.47 525.82 190.94 525.22 188.42 C 524.59 190.94 524.00 193.47 523.43 196.00 Z" />
<path fill="#000000" opacity="1.00" d=" M 564.87 184.00 C 566.33 184.00 567.79 184.00 569.27 184.00 C 569.27 189.33 569.27 194.66 569.26 199.99 C 571.42 199.99 573.58 200.00 575.75 200.01 C 575.74 201.34 575.74 202.67 575.74 204.00 C 572.11 204.00 568.49 204.00 564.87 204.00 C 564.86 197.33 564.86 190.67 564.87 184.00 Z" />
<path fill="#000000" opacity="1.00" d=" M 604.38 184.02 C 608.40 183.99 612.43 183.99 616.47 184.00 C 616.46 185.33 616.46 186.66 616.47 188.00 C 613.89 188.00 611.31 188.00 608.74 188.00 C 608.73 189.33 608.73 190.66 608.74 191.99 C 610.78 191.99 612.82 192.00 614.87 192.00 C 614.87 193.33 614.87 194.66 614.88 195.99 C 612.83 196.00 610.78 196.00 608.74 196.01 C 608.73 197.33 608.73 198.66 608.74 200.00 C 611.31 200.00 613.89 200.00 616.47 200.00 C 616.46 201.33 616.46 202.66 616.47 204.00 C 612.44 204.00 608.41 204.01 604.38 203.98 C 604.40 197.33 604.41 190.68 604.38 184.02 Z" />
<path fill="#000000" opacity="1.00" d=" M 443.49 186.67 C 446.35 185.23 450.61 185.83 452.05 188.99 C 453.88 193.09 453.72 197.94 452.43 202.16 C 451.09 206.73 444.14 207.42 441.60 203.62 C 439.72 200.43 439.82 196.55 440.15 192.99 C 440.46 190.61 441.17 187.86 443.49 186.67 M 445.46 189.42 C 444.01 193.31 444.44 197.81 445.07 201.86 C 445.40 203.61 448.40 203.41 448.28 201.56 C 448.92 197.91 448.90 194.11 448.29 190.46 C 448.42 188.93 446.34 188.49 445.46 189.42 Z" />
<path fill="#000000" opacity="1.00" d=" M 186.39 187.01 C 187.84 187.00 189.29 187.00 190.74 187.00 C 190.74 192.33 190.74 197.66 190.74 203.00 C 192.91 202.99 195.09 203.00 197.27 203.00 C 197.26 204.33 197.26 205.66 197.27 207.00 C 193.64 207.00 190.01 207.01 186.38 206.98 C 186.40 200.33 186.40 193.67 186.39 187.01 Z" />
<path fill="#000000" opacity="1.00" d=" M 234.20 187.19 C 236.51 186.61 239.41 186.98 240.93 189.00 C 242.81 191.58 242.89 194.94 242.82 198.01 C 242.69 200.83 242.29 204.12 239.92 206.00 C 237.04 207.89 232.41 207.30 230.76 204.06 C 229.07 200.33 229.23 196.00 230.01 192.07 C 230.40 189.82 231.94 187.78 234.20 187.19 M 235.00 190.20 C 233.67 193.29 234.15 196.78 234.16 200.06 C 234.26 201.79 234.41 204.66 236.92 204.04 C 238.80 201.56 238.08 197.98 238.21 195.02 C 238.07 193.03 238.15 188.69 235.00 190.20 Z" />
<path fill="#000000" opacity="1.00" d=" M 282.21 187.18 C 284.53 186.61 287.44 186.98 288.95 189.03 C 290.83 191.64 290.90 195.02 290.81 198.12 C 290.68 200.91 290.26 204.13 287.93 206.00 C 285.04 207.90 280.39 207.30 278.75 204.04 C 277.07 200.29 277.22 195.94 278.03 192.00 C 278.42 189.76 279.97 187.77 282.21 187.18 M 283.06 190.18 C 281.49 194.03 282.02 198.49 282.52 202.52 C 282.46 204.34 285.58 204.81 285.69 202.81 C 286.37 198.62 286.91 193.86 285.05 189.91 C 284.55 189.98 283.56 190.11 283.06 190.18 Z" />
<path fill="#000000" opacity="1.00" d=" M 355.47 187.12 C 356.56 187.06 357.65 187.00 358.74 186.96 C 358.74 192.63 358.74 198.31 358.74 203.99 C 359.59 203.99 361.29 204.00 362.13 204.01 C 362.13 204.75 362.13 206.25 362.13 207.00 C 358.42 207.00 354.71 207.00 351.00 207.00 C 351.00 206.25 351.00 204.75 351.00 204.00 C 351.85 204.00 353.55 203.99 354.39 203.99 C 354.39 200.15 354.39 196.31 354.42 192.48 C 353.34 193.36 352.26 194.24 351.18 195.12 C 351.10 193.78 351.03 192.45 350.98 191.11 C 352.51 189.83 354.01 188.50 355.47 187.12 Z" />
<path fill="#000000" opacity="1.00" d=" M 398.42 187.70 C 401.28 186.22 405.57 186.80 407.03 189.96 C 408.88 194.04 408.72 198.89 407.45 203.12 C 406.13 207.73 399.12 208.43 396.58 204.59 C 394.73 201.42 394.82 197.57 395.15 194.03 C 395.45 191.66 396.14 188.92 398.42 187.70 M 400.49 190.49 C 399.03 193.34 399.68 196.86 399.63 199.99 C 399.53 201.92 400.29 205.20 402.91 203.76 C 404.07 199.40 404.16 194.52 402.84 190.19 C 402.37 190.13 401.43 190.00 400.96 189.94 L 400.49 190.49 Z" />
<path fill="#000000" opacity="1.00" d=" M 563.62 226.57 C 565.66 222.44 571.96 221.72 575.12 224.95 C 576.14 226.20 576.48 227.85 577.08 229.33 C 575.82 229.54 574.56 229.74 573.31 229.94 C 572.52 227.80 569.81 225.53 567.93 227.96 C 566.28 230.87 566.30 235.02 567.87 237.97 C 569.64 240.39 572.63 238.46 573.38 236.20 C 572.50 236.14 570.74 236.00 569.86 235.93 C 569.86 234.62 569.86 233.31 569.87 232.00 C 572.20 232.00 574.53 232.00 576.87 232.00 C 576.86 235.80 576.91 239.61 576.81 243.41 C 575.78 242.97 574.92 242.31 574.24 241.45 C 570.42 244.42 564.28 242.94 562.88 238.13 C 561.73 234.39 561.82 230.10 563.62 226.57 Z" />
<path fill="#000000" opacity="1.00" d=" M 188.87 224.00 C 190.33 224.00 191.80 224.00 193.27 224.00 C 193.27 230.66 193.27 237.33 193.27 244.00 C 191.80 244.00 190.33 244.00 188.87 244.00 C 188.86 237.33 188.86 230.67 188.87 224.00 Z" />
<path fill="#000000" opacity="1.00" d=" M 230.12 224.02 C 231.79 224.00 233.47 223.98 235.15 223.96 C 236.66 227.80 238.10 231.67 239.97 235.36 C 240.18 231.57 240.14 227.78 240.12 224.00 C 241.33 224.00 242.53 224.00 243.74 224.01 C 243.74 230.66 243.73 237.31 243.75 243.97 C 242.40 243.99 241.06 244.03 239.72 244.06 C 237.65 239.35 235.82 234.53 233.77 229.81 C 233.71 234.54 233.75 239.27 233.73 244.01 C 232.83 244.00 231.02 244.00 230.12 243.99 C 230.13 237.33 230.13 230.67 230.12 224.02 Z" />
<path fill="#000000" opacity="1.00" d=" M 282.20 224.19 C 284.50 223.61 287.42 223.98 288.93 226.01 C 290.81 228.60 290.90 231.96 290.81 235.04 C 290.69 237.64 290.36 240.52 288.48 242.51 C 285.58 245.22 279.85 244.36 278.47 240.41 C 277.07 236.53 277.19 232.17 278.25 228.22 C 278.72 226.27 280.28 224.74 282.20 224.19 M 283.11 227.14 C 281.65 229.82 282.20 233.03 282.11 235.96 C 282.24 238.00 282.01 241.69 285.12 241.10 C 286.79 237.34 286.32 233.00 285.90 229.02 C 285.91 227.39 284.63 226.42 283.11 227.14 Z" />
<path fill="#000000" opacity="1.00" d=" M 352.50 224.66 C 355.35 223.24 359.56 223.82 361.03 226.94 C 362.88 231.06 362.72 235.95 361.42 240.20 C 360.05 244.78 353.03 245.41 350.54 241.53 C 348.73 238.35 348.82 234.51 349.15 230.98 C 349.46 228.59 350.18 225.85 352.50 224.66 M 353.86 229.04 C 353.44 232.63 353.30 236.35 354.09 239.90 C 354.18 241.36 357.05 241.46 357.14 240.08 C 358.17 235.76 357.70 231.24 357.08 226.89 C 355.66 226.97 353.75 227.15 353.86 229.04 Z" />
<path fill="#000000" opacity="1.00" d=" M 442.26 224.17 C 444.56 223.62 447.42 223.99 448.93 226.00 C 450.82 228.61 450.89 231.98 450.81 235.07 C 450.68 237.69 450.34 240.59 448.42 242.57 C 445.50 245.19 439.88 244.35 438.49 240.46 C 437.07 236.56 437.19 232.17 438.25 228.21 C 438.73 226.24 440.33 224.71 442.26 224.17 M 443.11 227.17 C 441.43 231.00 442.04 235.53 442.52 239.58 C 442.55 241.33 445.51 241.78 445.68 239.85 C 446.43 235.63 446.78 230.96 445.14 226.90 C 444.63 226.97 443.62 227.10 443.11 227.17 Z" />
<path fill="#000000" opacity="1.00" d=" M 603.39 224.02 C 606.99 224.14 610.74 223.49 614.26 224.55 C 617.52 226.40 617.44 231.64 614.49 233.78 C 617.99 235.80 618.29 241.41 614.61 243.35 C 611.00 244.53 607.11 243.86 603.39 243.98 C 603.40 237.33 603.40 230.67 603.39 224.02 M 607.56 232.07 C 609.63 232.14 611.69 231.88 612.94 229.99 C 611.68 228.21 609.67 227.84 607.64 227.81 C 607.60 229.23 607.57 230.65 607.56 232.07 M 607.54 235.96 C 607.56 237.33 607.58 238.71 607.60 240.08 C 609.37 239.80 611.62 240.40 612.88 238.78 C 613.53 235.49 609.65 236.09 607.54 235.96 Z" />
<path fill="#000000" opacity="1.00" d=" M 396.58 229.05 C 398.12 227.76 399.63 226.43 401.10 225.05 C 401.89 225.03 403.47 224.99 404.27 224.98 C 404.27 230.63 404.28 236.29 404.25 241.94 C 405.37 241.98 406.50 242.02 407.63 242.06 C 407.63 242.79 407.63 244.24 407.63 244.97 C 403.93 245.01 400.23 245.00 396.54 245.00 C 396.53 244.26 396.53 242.76 396.52 242.02 C 397.36 242.01 399.04 241.98 399.88 241.97 C 399.85 238.15 399.85 234.33 399.92 230.52 C 398.78 231.40 397.64 232.28 396.51 233.16 C 396.53 232.13 396.56 230.08 396.58 229.05 Z" />
<path fill="#000000" opacity="1.00" d=" M 523.47 226.68 C 526.34 225.22 530.63 225.83 532.06 229.02 C 533.87 233.12 533.72 237.97 532.42 242.19 C 531.06 246.77 524.05 247.41 521.56 243.55 C 519.73 240.39 519.82 236.55 520.15 233.03 C 520.45 230.64 521.15 227.88 523.47 226.68 M 525.44 229.51 C 523.99 233.07 524.56 237.24 524.87 241.01 C 524.78 242.80 526.45 243.40 527.90 242.79 C 529.05 238.41 529.19 233.50 527.82 229.17 C 527.36 229.12 526.43 229.01 525.97 228.95 L 525.44 229.51 Z" />
<path fill="#000000" opacity="1.00" d=" M 702.33 229.03 C 704.15 229.01 705.97 229.00 707.81 229.00 C 710.93 238.33 713.88 247.71 717.04 257.03 C 715.16 257.00 713.30 256.97 711.44 256.93 C 710.91 255.20 710.39 253.48 709.89 251.75 C 706.69 251.83 703.40 251.36 700.27 252.06 C 699.60 253.64 699.10 255.28 698.59 256.91 C 696.75 256.96 694.91 256.99 693.09 257.03 C 696.22 247.71 699.21 238.35 702.33 229.03 M 702.00 246.74 C 704.05 246.73 706.12 246.73 708.19 246.73 C 707.20 243.70 706.21 240.68 705.17 237.68 C 703.98 240.65 702.90 243.67 702.00 246.74 Z" />
<path fill="#000000" opacity="1.00" d=" M 661.42 235.58 C 664.14 233.07 666.84 238.40 664.39 240.33 C 661.71 243.11 658.77 237.46 661.42 235.58 Z" />
<path fill="#000000" opacity="1.00" d=" M 668.37 235.02 C 673.79 234.98 679.20 234.98 684.62 235.03 C 684.63 235.76 684.64 237.22 684.65 237.95 C 679.23 238.04 673.81 238.00 668.39 237.99 C 668.38 237.24 668.38 235.76 668.37 235.02 Z" />
<path fill="#000000" opacity="1.00" d=" M 668.37 242.02 C 673.81 241.99 679.25 241.94 684.70 242.08 C 684.68 242.80 684.63 244.25 684.61 244.97 C 679.20 245.02 673.78 245.01 668.38 244.98 C 668.38 244.24 668.38 242.76 668.37 242.02 Z" />
<path fill="#000000" opacity="1.00" d=" M 661.42 246.58 C 664.10 244.03 666.92 249.48 664.32 251.31 C 661.58 254.07 658.85 248.42 661.42 246.58 Z" />
<path fill="#000000" opacity="1.00" d=" M 185.87 262.00 C 189.91 262.00 193.96 262.00 198.00 262.00 C 198.00 263.33 198.00 264.66 198.00 266.00 C 195.42 266.00 192.84 266.00 190.26 266.01 C 190.26 267.33 190.26 268.66 190.26 269.99 C 192.31 269.99 194.35 270.00 196.40 270.00 C 196.40 271.33 196.40 272.66 196.40 274.00 C 194.35 273.99 192.31 274.01 190.26 274.01 C 190.26 275.33 190.26 276.66 190.26 277.99 C 192.84 277.99 195.42 278.00 198.00 278.00 C 198.00 279.33 198.00 280.66 198.00 282.00 C 193.96 282.00 189.91 282.00 185.87 282.00 C 185.86 275.33 185.86 268.67 185.87 262.00 Z" />
<path fill="#000000" opacity="1.00" d=" M 234.35 263.09 C 235.86 263.05 237.38 263.02 238.90 263.00 C 240.75 269.68 242.69 276.34 244.61 283.00 C 243.09 283.00 241.57 283.00 240.06 283.00 C 239.72 281.66 239.40 280.33 239.07 278.99 C 237.17 279.00 235.28 279.02 233.39 279.04 C 233.09 280.33 232.80 281.62 232.52 282.91 C 231.14 282.95 229.76 282.99 228.39 283.05 C 230.41 276.40 232.44 269.77 234.35 263.09 M 234.42 275.00 C 235.63 275.00 236.83 275.00 238.04 275.00 C 237.43 272.48 236.83 269.96 236.22 267.45 C 235.58 269.95 235.01 272.48 234.42 275.00 Z" />
<path fill="#000000" opacity="1.00" d=" M 277.39 263.02 C 280.73 263.14 284.22 262.50 287.47 263.46 C 291.82 265.47 291.26 271.76 287.93 274.50 C 289.06 277.36 290.26 280.19 291.52 283.00 C 289.91 283.00 288.31 283.00 286.72 283.00 C 285.26 280.20 285.74 275.03 281.77 274.68 C 281.73 277.45 281.74 280.22 281.74 283.00 C 280.29 282.99 278.83 282.99 277.39 282.99 C 277.40 276.33 277.40 269.68 277.39 263.02 M 281.76 271.21 C 283.77 271.16 285.71 270.72 286.96 268.99 C 285.71 267.26 283.76 266.84 281.76 266.78 C 281.75 268.25 281.75 269.73 281.76 271.21 Z" />
<path fill="#000000" opacity="1.00" d=" M 439.58 268.05 C 441.12 266.75 442.63 265.42 444.10 264.05 C 444.89 264.03 446.47 263.99 447.27 263.98 C 447.27 269.63 447.28 275.29 447.25 280.95 C 448.37 280.98 449.49 281.01 450.62 281.04 C 450.62 281.78 450.63 283.24 450.63 283.98 C 446.93 284.01 443.23 284.00 439.53 284.00 C 439.53 283.25 439.53 281.76 439.53 281.01 C 440.37 281.00 442.04 280.99 442.88 280.98 C 442.85 277.16 442.85 273.33 442.92 269.51 C 441.78 270.40 440.64 271.28 439.51 272.16 C 439.52 271.13 439.56 269.08 439.58 268.05 Z" />
<path fill="#000000" opacity="1.00" d=" M 523.44 264.69 C 526.31 263.22 530.60 263.81 532.05 266.99 C 533.88 271.09 533.72 275.96 532.42 280.19 C 531.06 284.77 524.04 285.41 521.54 281.54 C 519.73 278.34 519.82 274.49 520.16 270.95 C 520.46 268.59 521.17 265.89 523.44 264.69 M 525.45 267.48 C 523.99 271.05 524.56 275.20 524.86 278.98 C 524.50 281.22 528.26 281.94 528.28 279.55 C 528.86 275.50 529.16 271.14 527.86 267.19 C 527.40 267.13 526.47 267.02 526.01 266.96 L 525.45 267.48 Z" />
<path fill="#000000" opacity="1.00" d=" M 352.42 265.70 C 355.30 264.21 359.60 264.81 361.06 268.00 C 362.87 272.10 362.72 276.94 361.43 281.17 C 360.08 285.77 353.05 286.42 350.55 282.54 C 348.73 279.36 348.82 275.51 349.15 271.98 C 349.46 269.62 350.16 266.91 352.42 265.70 M 354.42 268.41 C 353.06 272.08 353.52 276.21 353.87 280.04 C 353.81 281.72 355.41 282.42 356.81 281.85 C 358.21 277.92 357.83 273.52 357.29 269.46 C 357.40 267.89 355.38 267.56 354.42 268.41 Z" />
<path fill="#000000" opacity="1.00" d=" M 566.47 265.68 C 569.34 264.22 573.63 264.83 575.06 268.02 C 576.88 272.11 576.72 276.95 575.43 281.18 C 574.08 285.75 567.09 286.41 564.57 282.57 C 562.72 279.39 562.82 275.53 563.15 271.99 C 563.46 269.61 564.16 266.88 566.47 265.68 M 568.46 268.48 C 566.98 272.05 567.56 276.25 567.87 280.04 C 567.80 281.79 569.40 282.36 570.84 281.83 C 572.12 277.47 572.16 272.51 570.82 268.17 C 570.36 268.12 569.45 268.01 568.99 267.96 L 568.46 268.48 Z" />
<path fill="#000000" opacity="1.00" d=" M 396.47 266.68 C 399.33 265.23 403.58 265.82 405.04 268.97 C 406.88 273.08 406.72 277.95 405.42 282.19 C 404.06 286.75 397.11 287.41 394.58 283.59 C 392.86 280.69 392.86 277.17 393.06 273.91 C 393.30 271.25 393.88 268.06 396.47 266.68 M 398.44 269.43 C 397.02 273.07 397.54 277.23 397.87 281.05 C 397.58 283.30 401.33 283.89 401.29 281.51 C 401.91 277.88 401.91 274.09 401.28 270.46 C 401.37 268.90 399.36 268.49 398.44 269.43 Z" />
<path fill="#000000" opacity="1.00" d=" M 606.39 266.02 C 609.73 266.15 613.23 265.50 616.47 266.47 C 620.82 268.48 620.26 274.76 616.93 277.50 C 618.05 280.36 619.25 283.19 620.52 286.00 C 618.91 286.00 617.31 286.00 615.72 286.00 C 614.26 283.20 614.74 278.04 610.77 277.68 C 610.73 280.46 610.73 283.25 610.74 286.04 C 609.26 285.99 607.79 285.94 606.32 285.89 C 606.46 279.27 606.37 272.64 606.39 266.02 M 610.82 273.63 C 611.85 273.96 612.93 274.15 614.08 274.20 C 614.44 273.64 615.17 272.53 615.54 271.98 C 615.19 271.48 614.48 270.49 614.13 270.00 C 613.28 269.98 611.57 269.95 610.71 269.93 C 610.72 271.16 610.71 272.40 610.82 273.63 Z" />
</g>
</svg>
